<svg xmlns="http://www.w3.org/2000/svg" width="13.14" height="13.14" viewBox="0 0 13.14 13.14"><defs><style>.a{fill:#fff;}</style></defs><g transform="translate(0 -0.001)"><g transform="translate(0 0.001)"><path class="a" d="M12.427,5.654H7.487V.714A.886.886,0,0,0,6.57,0a.886.886,0,0,0-.917.713v4.94H.713A.886.886,0,0,0,0,6.571a.886.886,0,0,0,.713.917h4.94v4.94a.886.886,0,0,0,.917.713.886.886,0,0,0,.917-.713V7.488h4.94a.886.886,0,0,0,.713-.917A.886.886,0,0,0,12.427,5.654Z" transform="translate(0 -0.001)"/></g></g></svg>