<svg xmlns="http://www.w3.org/2000/svg" width="76.83" height="90" viewBox="0 0 76.83 90"><defs><style>.a{fill:#bebebe;}</style></defs><g transform="translate(-5.188)"><g transform="translate(5.188)"><path class="a" d="M81.993,29.4a2.677,2.677,0,0,0-.141-.7l-.084-.223a2.575,2.575,0,0,0-.532-.786L54.317.774A2.706,2.706,0,0,0,53.5.234c-.056-.023-.11-.042-.2-.072A2.6,2.6,0,0,0,52.577.02L52.444,0H34.659a11.611,11.611,0,0,0-11.6,11.6v1.56H16.785a11.612,11.612,0,0,0-11.6,11.6V78.4A11.612,11.612,0,0,0,16.785,90H52.549a11.612,11.612,0,0,0,11.6-11.6V76.841H70.42a11.611,11.611,0,0,0,11.6-11.6V29.577ZM55.1,9.07,72.946,26.921H61.381A6.29,6.29,0,0,1,55.1,20.636V9.07ZM58.831,78.4a6.291,6.291,0,0,1-6.283,6.285H16.784A6.291,6.291,0,0,1,10.5,78.4V24.755a6.291,6.291,0,0,1,6.283-6.285H31.912V33.792a11.611,11.611,0,0,0,11.6,11.6H58.831ZM37.225,33.793V22.229l17.85,17.848H43.511A6.291,6.291,0,0,1,37.225,33.793ZM76.7,65.241a6.291,6.291,0,0,1-6.283,6.285H64.146V42.733l-.025-.174a2.7,2.7,0,0,0-.14-.694l-.091-.24a2.607,2.607,0,0,0-.52-.767L36.446,13.931a2.54,2.54,0,0,0-.743-.505,1.966,1.966,0,0,0-.263-.1,2.559,2.559,0,0,0-.694-.141v.005l-.176-.029h-6.2V11.6a6.292,6.292,0,0,1,6.285-6.285H49.787V20.636a11.609,11.609,0,0,0,11.6,11.6H76.7Z" transform="translate(-5.188)"/><path class="a" d="M29.65,38.747a2,2,0,0,0-4,0v7.172H18.478a2,2,0,0,0,0,4H25.65v7.172a2,2,0,0,0,4,0V49.919h7.173a2,2,0,0,0,0-4H29.65Z" transform="translate(-0.367 14.453)"/></g></g></svg>