<svg xmlns="http://www.w3.org/2000/svg" width="18.192" height="20" viewBox="0 0 18.192 20"><defs><style>.a{fill:#dfe8f4;}</style></defs><g transform="translate(0)"><path class="a" d="M21.461,16.83a.718.718,0,0,0,.658.443h5.215a3.192,3.192,0,0,0,6.316,0h5.227a.332.332,0,0,0,.108-.012.728.728,0,0,0,.574-.455.7.7,0,0,0-.179-.754l-.036-.036a3.355,3.355,0,0,1-.634-1.077,10.684,10.684,0,0,1-.67-4.055c0-4-1.507-6.1-2.763-7.165A6.346,6.346,0,0,0,33.052,2.5a2.827,2.827,0,0,0-.6-1.7A2.4,2.4,0,0,0,30.516,0a2.426,2.426,0,0,0-1.926.8,2.79,2.79,0,0,0-.61,1.734,6.412,6.412,0,0,0-2.225,1.2c-2.309,1.89-2.787,4.928-2.787,7.129a10.515,10.515,0,0,1-.682,4.019,4.395,4.395,0,0,1-.658,1.16h0A.718.718,0,0,0,21.461,16.83ZM30.5,18.565a1.783,1.783,0,0,1-1.7-1.292h3.4A1.783,1.783,0,0,1,30.5,18.565Zm-6.1-7.7c0-6.435,4.211-7.045,4.378-7.069a.731.731,0,0,0,.49-.275.742.742,0,0,0,.144-.55A1.771,1.771,0,0,1,29.679,1.7a.969.969,0,0,1,.837-.3,1.025,1.025,0,0,1,.849.3,1.75,1.75,0,0,1,.251,1.22.7.7,0,0,0,.132.55.72.72,0,0,0,.49.287A4.672,4.672,0,0,1,34.38,4.809c1.5,1.256,2.249,3.3,2.249,6.077a11.278,11.278,0,0,0,.933,4.964H23.447A11.814,11.814,0,0,0,24.4,10.861Z" transform="translate(-21.409)"/></g></svg>