<svg xmlns="http://www.w3.org/2000/svg" width="13.938" height="13.937" viewBox="0 0 13.938 13.937"><defs><style>.a{fill:#dfe8f4;}</style></defs><path class="a" d="M8.073,9.637a5.169,5.169,0,0,0-1.086-.58,2.771,2.771,0,0,0,.9-1.828,4.1,4.1,0,0,1,5.2-.425.544.544,0,1,0,.623-.893,5.175,5.175,0,0,0-1.086-.58,2.776,2.776,0,1,0-3.738-.006q-.114.044-.227.093a5.17,5.17,0,0,0-.959.551A2.776,2.776,0,1,0,3.244,9.046,5.236,5.236,0,0,0,.083,12.3a1.633,1.633,0,0,0,1.555,2.134H6.374a.544.544,0,0,0,0-1.089H1.637a.545.545,0,0,1-.518-.711A4.2,4.2,0,0,1,5.11,9.8a4.072,4.072,0,0,1,2.341.734.544.544,0,1,0,.623-.893Zm2.683-8.047A1.688,1.688,0,1,1,9.068,3.277,1.69,1.69,0,0,1,10.756,1.589ZM5.122,5.315A1.688,1.688,0,1,1,3.434,7,1.69,1.69,0,0,1,5.122,5.315Zm8.819,6.536a.544.544,0,0,1-.544.544H11.9v1.5a.544.544,0,1,1-1.089,0V12.4h-1.5a.544.544,0,0,1,0-1.089h1.5V9.81a.544.544,0,0,1,1.089,0v1.5h1.5A.544.544,0,0,1,13.941,11.851Zm0,0" transform="translate(-0.003 -0.501)"/></svg>