<svg xmlns="http://www.w3.org/2000/svg" width="16.065" height="16.063" viewBox="0 0 16.065 16.063"><defs><style>.a{fill:#ffffff;}</style></defs><path class="a" d="M9.3,11.031a5.958,5.958,0,0,0-1.252-.668A3.194,3.194,0,0,0,9.092,8.256a4.723,4.723,0,0,1,5.989-.49A.627.627,0,1,0,15.8,6.737a5.964,5.964,0,0,0-1.252-.668,3.2,3.2,0,1,0-4.309-.007q-.131.051-.261.107A5.959,5.959,0,0,0,8.873,6.8a3.2,3.2,0,1,0-5.134,3.547A6.035,6.035,0,0,0,.095,14.1a1.883,1.883,0,0,0,1.792,2.459H7.346a.627.627,0,0,0,0-1.255H1.887a.628.628,0,0,1-.6-.82,4.841,4.841,0,0,1,4.6-3.275,4.693,4.693,0,0,1,2.7.846A.627.627,0,1,0,9.3,11.031ZM12.4,1.756A1.945,1.945,0,1,1,10.452,3.7,1.947,1.947,0,0,1,12.4,1.756ZM5.9,6.05A1.945,1.945,0,1,1,3.958,7.995,1.947,1.947,0,0,1,5.9,6.05Zm10.165,7.534a.627.627,0,0,1-.628.627H13.715v1.726a.627.627,0,1,1-1.255,0V14.211H10.734a.627.627,0,0,1,0-1.255H12.46V11.23a.627.627,0,0,1,1.255,0v1.726H15.44A.628.628,0,0,1,16.068,13.584Zm0,0" transform="translate(-0.003 -0.501)"/></svg>
