<svg xmlns="http://www.w3.org/2000/svg" width="13.2" height="13.2" viewBox="0 0 13.2 13.2"><g transform="translate(0 0)"><path d="M11.267,1.933a6.6,6.6,0,1,0-9.333,9.333,6.6,6.6,0,1,0,9.333-9.333Zm-.531,8.8A5.849,5.849,0,0,1,2.464,2.464a5.849,5.849,0,1,1,8.272,8.272Z"/><path d="M134.852,129.035a.374.374,0,0,0-.531,0l-2.378,2.378-2.378-2.378a.375.375,0,0,0-.531.531l2.378,2.378-2.378,2.378a.376.376,0,0,0,.264.642.366.366,0,0,0,.264-.111l2.378-2.378,2.378,2.378a.377.377,0,0,0,.264.111.361.361,0,0,0,.264-.111.374.374,0,0,0,0-.531l-2.372-2.378,2.378-2.378A.374.374,0,0,0,134.852,129.035Z" transform="translate(-125.344 -125.344)"/></g></svg>