<svg xmlns="http://www.w3.org/2000/svg" width="18.877" height="18.877" viewBox="0 0 18.877 18.877"><defs><style>.a{fill:#ffffff;}</style></defs><g transform="translate(-1 -1)"><path class="a" d="M29.913,7a.913.913,0,1,0,.913.913A.913.913,0,0,0,29.913,7Zm0,1.218a.3.3,0,1,1,.3-.3A.3.3,0,0,1,29.913,8.218Z" transform="translate(-19.475 -4.173)"/><path class="a" d="M7.913,22.827A.913.913,0,1,0,7,21.913.913.913,0,0,0,7.913,22.827Zm0-1.218a.3.3,0,1,1-.3.3A.3.3,0,0,1,7.913,21.609Z" transform="translate(-4.173 -13.911)"/><path class="a" d="M19.573,5.263H14.7a.3.3,0,0,0-.3.3V7.7H12.874a.3.3,0,0,0-.3.3v4.452l-1.845-.71a.294.294,0,0,0,.018-.088V6.481h2.131a.3.3,0,0,0,.3-.3V1.3a.3.3,0,0,0-.3-.3H8a.3.3,0,0,0-.3.3V6.176a.3.3,0,0,0,.3.3h2.131v5.176a.294.294,0,0,0,.018.088l-1.845.71V8A.3.3,0,0,0,8,7.7H6.481V5.567a.3.3,0,0,0-.3-.3H1.3a.3.3,0,0,0-.3.3v4.872a.3.3,0,0,0,.3.3H6.176a.3.3,0,0,0,.3-.3V8.307H7.7V12.57a.3.3,0,0,0,.022.11L6.371,13.2a.537.537,0,0,0-.072.04.3.3,0,0,0-.124.246v4.872a.3.3,0,0,0,.215.291l3.953,1.216h0l0,0a.3.3,0,0,0,.179,0l0,0h0l3.953-1.216a.3.3,0,0,0,.216-.291V13.483a.3.3,0,0,0-.124-.244.536.536,0,0,0-.072-.04l-1.349-.518a.3.3,0,0,0,.022-.113V8.307H14.4v2.131a.3.3,0,0,0,.3.3h4.872a.3.3,0,0,0,.3-.3V5.567A.3.3,0,0,0,19.573,5.263ZM8.307,5.872V1.609H12.57V5.872ZM5.872,10.134H1.609V5.872H5.872Zm4.263,9.026L6.785,18.13V13.9l3.349,1.031Zm3.958-1.031-3.349,1.031V14.926L14.092,13.9Zm-3.654-3.747-3.027-.93,3.027-1.166,3.027,1.166Zm8.83-4.249H15.006V5.872h4.263Z"/><path class="a" d="M51.913,22.827A.913.913,0,1,0,51,21.913.913.913,0,0,0,51.913,22.827Zm0-1.218a.3.3,0,1,1-.3.3A.3.3,0,0,1,51.913,21.609Z" transform="translate(-34.776 -13.911)"/><path class="a" d="M48.3,28.609h1.827a.3.3,0,1,0,0-.609H48.3a.3.3,0,1,0,0,.609Z" transform="translate(-32.69 -18.779)"/><path class="a" d="M57.3,28.609h.3a.3.3,0,1,0,0-.609h-.3a.3.3,0,1,0,0,.609Z" transform="translate(-38.949 -18.779)"/></g></svg>
