<svg xmlns="http://www.w3.org/2000/svg" width="12.084" height="12.084" viewBox="0 0 12.084 12.084"><defs><style>.a{fill:#fff;}</style></defs><path class="a" d="M11.508.575a1.971,1.971,0,0,0-2.784,0L.837,8.463s-.006.008-.009.012l-.013.017a.213.213,0,0,0-.027.052c0,.006,0,.011-.006.016l0,.007L.006,11.815a.217.217,0,0,0,0,.044s0,.005,0,.008a.218.218,0,0,0,.014.073l.007.016a.218.218,0,0,0,.043.065.22.22,0,0,0,.072.048.217.217,0,0,0,.083.016.22.22,0,0,0,.051-.006l3.248-.773.017-.007.022-.009a.215.215,0,0,0,.044-.027l.016-.012.006,0,7.887-7.887A1.971,1.971,0,0,0,11.508.575ZM11.2.885a1.532,1.532,0,0,1,.142,2L9.2.743A1.532,1.532,0,0,1,11.2.885ZM10.116,4.133,7.951,1.967l.309-.309,2.165,2.165ZM1.085,11a.218.218,0,0,0-.309,0l-.166.166.559-2.346.967-.107-.124,1.12a.219.219,0,0,0,0,.024.223.223,0,0,0,0,.024c0,.007,0,.013.006.02a.222.222,0,0,0,.011.036.213.213,0,0,0,.021.04A.207.207,0,0,0,2.071,10a.219.219,0,0,0,.034.029.222.222,0,0,0,.03.018.228.228,0,0,0,.045.014.229.229,0,0,0,.024.008h.049l1.12-.124-.107.967-2.347.559.166-.166A.219.219,0,0,0,1.085,11ZM3.83,9.8,8.724,4.906A.219.219,0,1,0,8.415,4.6L3.521,9.491l-1.044.116.116-1.044L7.487,3.669a.219.219,0,1,0-.309-.309L2.283,8.254l-.7.077L7.642,2.277,9.807,4.442,3.752,10.5Zm6.905-6.286L8.57,1.349l.309-.309L11.044,3.2Z"/></svg>