<svg xmlns="http://www.w3.org/2000/svg" xmlns:xlink="http://www.w3.org/1999/xlink" width="20" height="20" viewBox="0 0 20 20">
  <defs>
    <clipPath id="clip-Project_Icon1">
      <rect width="20" height="20"/>
    </clipPath>
  </defs>
  <g id="Project_Icon1" clip-path="url(#clip-Project_Icon1)">
    <g id="graph-file" transform="translate(-24.8)">
      <g id="Group_2718" data-name="Group 2718" transform="translate(26.8)">
        <path id="Path_2204" data-name="Path 2204" d="M42.531,6.246a1.357,1.357,0,0,0-.189-.278L36.635.261h0a1.065,1.065,0,0,0-.3-.2A1.356,1.356,0,0,0,36.005,0H28.463A1.667,1.667,0,0,0,26.8,1.665v16.67A1.667,1.667,0,0,0,28.465,20H40.938A1.667,1.667,0,0,0,42.6,18.335V6.6a1.066,1.066,0,0,0-.072-.35ZM41.063,18.335a.128.128,0,0,1-.125.125H28.463a.128.128,0,0,1-.125-.125V1.665a.129.129,0,0,1,.125-.125h7.911V4.774a1.455,1.455,0,0,0,1.45,1.45h3.239Z" transform="translate(-26.8)" fill="#232e3e"/>
      </g>
      <path id="Path_2205" data-name="Path 2205" d="M72.616,97.666a4.706,4.706,0,1,0,4.663,4.706,4.685,4.685,0,0,0-4.663-4.706Zm-1.338,6.769.5-.5v2.032a3.615,3.615,0,0,1-.5-.156Zm-.666,1.029q-.106-.07-.208-.148l.208-.209Zm3.48-2.589v2.879a3.619,3.619,0,0,1-.5.178v-3.057Zm2.152,0a3.7,3.7,0,0,1-.327,1.1v-1.1Zm-7.292-.5a3.689,3.689,0,0,1,3.164-3.662v3.453L69.7,104.6a3.7,3.7,0,0,1-.746-2.228Zm3.486,3.693v-2.8l.384-.389h.109v3.179c-.1.009-.209.015-.316.015-.058,0-.119,0-.178-.008Zm2.32-.7v-2.493h.5v2.06A3.7,3.7,0,0,1,74.759,105.368Z" transform="translate(-37.916 -90.087)" fill="#232e3e"/>
    </g>
  </g>
</svg>
