<svg xmlns="http://www.w3.org/2000/svg" width="20" height="20" viewBox="0 0 20 20">
  <g id="line-chart" transform="translate(-340 -354)">
    <rect id="Rectangle_5" data-name="Rectangle 5" width="20" height="20" transform="translate(340 354)" fill="none"/>
    <g id="line-chart-2" data-name="line-chart" transform="translate(336.956 350.911)">
      <g id="Group_2901" data-name="Group 2901" transform="translate(3.044 3.089)">
        <path id="Path_2269" data-name="Path 2269" d="M88,88.2,85.88,84.346,91.823,81.1l-.731,2.521a1.208,1.208,0,0,0,.8,1.458,1.18,1.18,0,0,0,1.458-.8l1.536-5.238a1.1,1.1,0,0,0-.8-1.458l-5.244-1.541a1.176,1.176,0,1,0-.659,2.257l2.522.741-6.973,3.809a1.173,1.173,0,0,0-.471,1.593L85.373,88.3l-9.806,5.357a1.175,1.175,0,1,0,1.124,2.063L87.519,89.8A1.168,1.168,0,0,0,88,88.2Z" transform="translate(-74.954 -75.996)" fill="#dfe8f4"/>
      </g>
    </g>
  </g>
</svg>
