<svg xmlns="http://www.w3.org/2000/svg" width="13.584" height="16.798" viewBox="0 0 13.584 16.798"><defs><style>.a{fill:#f81b1b;}</style></defs><g transform="translate(-18.654 0)"><g transform="translate(-27.501 0)"><g transform="translate(46.155)"><path class="a" d="M57.82,2.013H55.205a2.273,2.273,0,0,0-4.516,0H48.074a1.921,1.921,0,0,0-1.919,1.919v.1a1.921,1.921,0,0,0,1.213,1.783v9.066A1.921,1.921,0,0,0,49.287,16.8h7.32a1.921,1.921,0,0,0,1.919-1.919V5.813A1.921,1.921,0,0,0,59.739,4.03v-.1A1.921,1.921,0,0,0,57.82,2.013ZM52.947.91a1.366,1.366,0,0,1,1.339,1.1H51.609A1.366,1.366,0,0,1,52.947.91Zm4.669,13.969a1.01,1.01,0,0,1-1.009,1.009h-7.32a1.01,1.01,0,0,1-1.009-1.009V5.949h9.338ZM58.829,4.03A1.01,1.01,0,0,1,57.82,5.039H48.074A1.01,1.01,0,0,1,47.065,4.03v-.1a1.01,1.01,0,0,1,1.009-1.009H57.82a1.01,1.01,0,0,1,1.009,1.009v.1Z" transform="translate(-46.155 0)"/><path class="a" d="M158.53,255.6a.455.455,0,0,0,.455-.455v-5.124a.455.455,0,1,0-.91,0v5.124A.455.455,0,0,0,158.53,255.6Z" transform="translate(-154.178 -240.881)"/><path class="a" d="M228.6,255.6a.455.455,0,0,0,.455-.455v-5.124a.455.455,0,1,0-.91,0v5.124A.455.455,0,0,0,228.6,255.6Z" transform="translate(-221.808 -240.881)"/><path class="a" d="M298.669,255.6a.455.455,0,0,0,.455-.455v-5.124a.455.455,0,1,0-.91,0v5.124A.455.455,0,0,0,298.669,255.6Z" transform="translate(-289.437 -240.881)"/></g></g></g></svg>