<svg xmlns="http://www.w3.org/2000/svg" width="16" height="16.04" viewBox="0 0 16 16.04"><defs><style>.a{fill:#0077c0;}</style></defs><g transform="translate(-9.655 -1)"><path class="a" d="M15.8,7.9a8.01,8.01,0,0,1,5.549,2.147V9.419a.4.4,0,1,1,.8,0l.019,1.6a.39.39,0,0,1-.4.4l-1.6.019h0a.4.4,0,1,1,0-.8h.608a7.109,7.109,0,0,0-4.96-1.9,6.979,6.979,0,0,0-5.074,2.128,7.139,7.139,0,0,0-1.615,7.469.4.4,0,0,1-.247.513.323.323,0,0,1-.133.019.388.388,0,0,1-.38-.266,7.831,7.831,0,0,1-.3-4.333,7.955,7.955,0,0,1,2.109-3.953A7.87,7.87,0,0,1,15.8,7.9Zm.171,15.2a7.109,7.109,0,0,1-4.96-1.9h.608a.4.4,0,1,0,0-.8h0l-1.6.019a.4.4,0,0,0-.4.4l.019,1.6a.4.4,0,0,0,.4.4h0a.4.4,0,0,0,.4-.4v-.627a7.918,7.918,0,0,0,5.454,2.147h.1a7.838,7.838,0,0,0,5.625-2.414,8,8,0,0,0,1.805-8.3.4.4,0,1,0-.76.266A7.181,7.181,0,0,1,15.97,23.1Zm2-9.141v.912h.57a.4.4,0,0,1,.4.4v3.421a.4.4,0,0,1-.4.4H13.252a.4.4,0,0,1-.4-.4V15.272a.4.4,0,0,1,.4-.4h.57v-.912a2.1,2.1,0,0,1,2.09-2.09A2.064,2.064,0,0,1,17.965,13.961Zm-3.345.912h2.547v-.912a1.273,1.273,0,0,0-2.547,0v.912Zm3.516.817H13.651v2.6h4.485Z" transform="translate(1.764 -6.898)"/></g></svg>