<svg xmlns="http://www.w3.org/2000/svg" width="15.619" height="15.62" viewBox="0 0 15.619 15.62"><defs><style>.a{fill:#0077c0;}</style></defs><path class="a" d="M14.875.744a2.548,2.548,0,0,0-3.6,0L1.082,10.939s-.008.011-.012.016l-.016.021a.275.275,0,0,0-.035.068c0,.007-.006.014-.008.021l0,.008-1,4.2A.28.28,0,0,0,0,15.328s0,.007,0,.011a.281.281,0,0,0,.018.094c0,.007.005.013.008.02a.282.282,0,0,0,.055.084.285.285,0,0,0,.093.062.281.281,0,0,0,.107.021.284.284,0,0,0,.065-.008l4.2-1a.2.2,0,0,0,.022-.008l.028-.011a.278.278,0,0,0,.057-.035c.007-.005.014-.009.02-.015l.007-.006,10.2-10.2A2.547,2.547,0,0,0,14.875.744Zm-.4.4a1.981,1.981,0,0,1,.184,2.583L11.892.96A1.981,1.981,0,0,1,14.476,1.144Zm-1.4,4.2-2.8-2.8.4-.4,2.8,2.8ZM1.4,14.217a.282.282,0,0,0-.4,0l-.214.214L1.511,11.4l1.25-.139L2.6,12.707a.282.282,0,0,0,0,.031.289.289,0,0,0,0,.031c0,.009.006.017.008.026a.287.287,0,0,0,.014.047.275.275,0,0,0,.027.051.268.268,0,0,0,.028.036.283.283,0,0,0,.044.038.287.287,0,0,0,.039.024.294.294,0,0,0,.059.019.3.3,0,0,0,.031.01l.031,0h0l.031,0,1.448-.161-.139,1.25-3.033.722.214-.214A.283.283,0,0,0,1.4,14.217ZM4.95,12.668l6.326-6.327a.283.283,0,0,0-.4-.4L4.551,12.268l-1.349.15.15-1.349L9.678,4.742a.283.283,0,0,0-.4-.4L2.951,10.669l-.9.1L9.878,2.943l2.8,2.8L4.85,13.568Zm8.925-8.125-2.8-2.8.4-.4,2.8,2.8Z" transform="translate(0 0)"/></svg>