<svg xmlns="http://www.w3.org/2000/svg" xmlns:xlink="http://www.w3.org/1999/xlink" width="20" height="20" viewBox="0 0 20 20">
  <defs>
    <clipPath id="clip-List__Icon_Normal">
      <rect width="20" height="20"/>
    </clipPath>
  </defs>
  <g id="List__Icon_Normal" data-name="List_ Icon_Normal" clip-path="url(#clip-List__Icon_Normal)">
    <g id="Group_1" data-name="Group 1">
      <path id="Path_2278" data-name="Path 2278" d="M3.528,24.92H1.022A1.023,1.023,0,0,0,0,25.942v2.506a1.023,1.023,0,0,0,1.022,1.022H3.528A1.023,1.023,0,0,0,4.55,28.447V25.942A1.023,1.023,0,0,0,3.528,24.92Z" transform="translate(1.66 -22.42)" fill="#232e3e"/>
      <path id="Path_2279" data-name="Path 2279" d="M189.325,24.92h-9.6a1.023,1.023,0,0,0-1.022,1.022v2.506a1.023,1.023,0,0,0,1.022,1.022h9.6a1.023,1.023,0,0,0,1.022-1.022V25.942A1.023,1.023,0,0,0,189.325,24.92Z" transform="translate(-171.593 -22.42)" fill="#232e3e"/>
      <path id="Path_2280" data-name="Path 2280" d="M3.528,205.632H1.022A1.023,1.023,0,0,0,0,206.654v2.506a1.023,1.023,0,0,0,1.022,1.022H3.528a1.023,1.023,0,0,0,1.022-1.022v-2.506A1.023,1.023,0,0,0,3.528,205.632Z" transform="translate(1.66 -197.62)" fill="#232e3e"/>
      <path id="Path_2281" data-name="Path 2281" d="M189.325,205.632h-9.6a1.023,1.023,0,0,0-1.022,1.022v2.506a1.023,1.023,0,0,0,1.022,1.022h9.6a1.023,1.023,0,0,0,1.022-1.022v-2.506A1.023,1.023,0,0,0,189.325,205.632Z" transform="translate(-171.593 -197.62)" fill="#232e3e"/>
      <path id="Path_2282" data-name="Path 2282" d="M3.528,386.343H1.022A1.023,1.023,0,0,0,0,387.365v2.506a1.023,1.023,0,0,0,1.022,1.022H3.528a1.023,1.023,0,0,0,1.022-1.022v-2.506A1.023,1.023,0,0,0,3.528,386.343Z" transform="translate(1.66 -372.819)" fill="#232e3e"/>
      <path id="Path_2283" data-name="Path 2283" d="M189.325,386.343h-9.6a1.023,1.023,0,0,0-1.022,1.022v2.506a1.023,1.023,0,0,0,1.022,1.022h9.6a1.023,1.023,0,0,0,1.022-1.022v-2.506A1.023,1.023,0,0,0,189.325,386.343Z" transform="translate(-171.593 -372.819)" fill="#232e3e"/>
    </g>
  </g>
</svg>
="translate(-173.253 -375.319)" fill="#232e3e"/>
      </g>
    </g>
  </g>
</svg>
</svg>
