<svg xmlns="http://www.w3.org/2000/svg" width="16" height="14.609" viewBox="0 0 16 14.609">
  <path id="ic_add_a_photo_24px" d="M2.087,3.087V1H3.478V3.087H5.565V4.478H3.478V6.565H2.087V4.478H0V3.087ZM4.174,7.261V5.174H6.261V3.087h4.87L12.4,4.478h2.205A1.4,1.4,0,0,1,16,5.87v8.348a1.4,1.4,0,0,1-1.391,1.391H3.478a1.4,1.4,0,0,1-1.391-1.391V7.261Zm4.87,6.261a3.478,3.478,0,1,0-3.478-3.478A3.48,3.48,0,0,0,9.043,13.522ZM6.817,10.043A2.226,2.226,0,1,0,9.043,7.817a2.224,2.224,0,0,0-2.226,2.226Z" transform="translate(0 -1)" fill="#232e3e"/>
</svg>
