<svg xmlns="http://www.w3.org/2000/svg" xmlns:xlink="http://www.w3.org/1999/xlink" width="20" height="20" viewBox="0 0 20 20">
  <defs>
    <clipPath id="clip-Data_View_Hover">
      <rect width="20" height="20"/>
    </clipPath>
  </defs>
  <g id="Data_View_Hover" clip-path="url(#clip-Data_View_Hover)">
    <g id="Group_2" data-name="Group 2" transform="translate(-296 -351)">
      <rect id="Rectangle_6" data-name="Rectangle 6" width="20" height="20" transform="translate(296 351)" fill="none"/>
      <path id="path" d="M559.155,1082.66a9.031,9.031,0,0,1,6.745-2.755,9.4,9.4,0,0,1,6.745,2.755,8.888,8.888,0,0,1,2.755,6.745,9.4,9.4,0,0,1-2.755,6.745,8.889,8.889,0,0,1-6.745,2.755,9.4,9.4,0,0,1-6.745-2.755,8.888,8.888,0,0,1-2.755-6.745,9.246,9.246,0,0,1,2.755-6.745Zm1.425,12.065a7.343,7.343,0,0,0,5.32,2.28,7.19,7.19,0,0,0,5.32-2.28,7.738,7.738,0,0,0,2.28-5.32,7.189,7.189,0,0,0-2.28-5.32,7.739,7.739,0,0,0-5.32-2.28,7.191,7.191,0,0,0-5.32,2.28,7.738,7.738,0,0,0-2.28,5.32,7.343,7.343,0,0,0,2.28,5.315Zm4.37-8.265v-1.9h1.9v1.9Zm0,7.6v-5.7h1.9v5.7Z" transform="translate(-259.4 -727.9)" fill="#232e3e"/>
    </g>
  </g>
</svg>
