<svg xmlns="http://www.w3.org/2000/svg" width="24" height="24" viewBox="0 0 24 24">
  <g id="ic-dashboard" transform="translate(-4817 -2876)">
    <g id="Rectangle_40" data-name="Rectangle 40" transform="translate(4817 2876)" fill="rgba(0,0,0,0.04)" stroke="rgba(3,53,102,0.05)" stroke-width="1">
      <rect width="24" height="24" stroke="none"/>
      <rect x="0.5" y="0.5" width="23" height="23" fill="none"/>
    </g>
    <path id="Path_255" data-name="Path 255" d="M106.636-2561a.732.732,0,0,1-.578-.291A9.958,9.958,0,0,1,104-2567.4c0-5.3,4.029-9.6,9-9.6s9,4.3,9,9.6a9.96,9.96,0,0,1-2.058,6.109.732.732,0,0,1-.578.291Zm.364-1.6h12a8.256,8.256,0,0,0,1.463-4H118.25a.775.775,0,0,1-.75-.8.775.775,0,0,1,.75-.8h2.213a8.249,8.249,0,0,0-1.656-4.263l-.5.538a.718.718,0,0,1-1.06,0,.839.839,0,0,1,0-1.132l.5-.537a7.225,7.225,0,0,0-4-1.767v2.36a.776.776,0,0,1-.75.8.776.776,0,0,1-.75-.8v-2.36a7.228,7.228,0,0,0-4,1.766l.5.538a.839.839,0,0,1,0,1.132.718.718,0,0,1-1.06,0l-.5-.539a8.258,8.258,0,0,0-1.656,4.264h2.213a.775.775,0,0,1,.75.8.775.775,0,0,1-.75.8h-2.213A8.268,8.268,0,0,0,107-2562.6Zm4.008-5.463,4.242-2.263-2.121,4.525Z" transform="translate(4716 5457)"/>
  </g>
</svg>
