<svg xmlns="http://www.w3.org/2000/svg" width="24" height="24" viewBox="0 0 24 24">
  <g id="ic-programs" transform="translate(-4817 -2876)">
    <g id="Rectangle_40" data-name="Rectangle 40" transform="translate(4817 2876)" fill="rgba(0,0,0,0.04)" stroke="rgba(3,53,102,0.05)" stroke-width="1">
      <rect width="24" height="24" stroke="none"/>
      <rect x="0.5" y="0.5" width="23" height="23" fill="none"/>
    </g>
    <path id="Path_256" data-name="Path 256" d="M1.123.919a.6.6,0,0,0-.6.6v13.8a.6.6,0,0,0,.6.6h15.6a.6.6,0,0,0,.6-.6V1.52a.6.6,0,0,0-.6-.6Zm.6,1.2h14.4V5.139H1.721Zm1.8.9a.6.6,0,1,0,0,1.2h.628a.6.6,0,0,0,0-1.2Zm2.992,0a.6.6,0,1,0,0,1.2h.627a.6.6,0,1,0,0-1.2Zm3.01,0a.6.6,0,1,0,0,1.2h.627a.6.6,0,0,0,0-1.2Zm-7.8,3.324h14.4V14.72H1.721ZM9.388,7.446a.611.611,0,0,0-.685.5l-.751,4.977a.6.6,0,0,0,1.185.181l.751-4.977A.6.6,0,0,0,9.388,7.446Zm1.8,1.786,1.172,1.3-1.172,1.294a.6.6,0,1,0,.889.8l1.534-1.7a.6.6,0,0,0,0-.8l-1.534-1.7a.6.6,0,0,0-.865-.035.606.606,0,0,0-.024.839Zm-5.347-.8L4.3,10.125a.6.6,0,0,0,0,.8l1.538,1.7a.6.6,0,1,0,.884-.8l-1.17-1.294,1.17-1.3a.594.594,0,0,0-.04-.844A.561.561,0,0,0,5.839,8.427Z" transform="translate(4820.478 2880.081)"/>
  </g>
</svg>
