<svg xmlns="http://www.w3.org/2000/svg" width="24" height="24" viewBox="0 0 24 24">
  <g id="ic-projects" transform="translate(-4817 -2876)">
    <g id="Rectangle_40" data-name="Rectangle 40" transform="translate(4817 2876)" fill="rgba(0,0,0,0.04)" stroke="rgba(3,53,102,0.05)" stroke-width="1">
      <rect width="24" height="24" stroke="none"/>
      <rect x="0.5" y="0.5" width="23" height="23" fill="none"/>
    </g>
    <path id="Path_61" data-name="Path 61" d="M6.133,0A2.667,2.667,0,0,1,8.267,1.067l.8,1.067H12.8a3.2,3.2,0,0,1,3.2,3.2V12.8A3.2,3.2,0,0,1,12.8,16H3.2A3.2,3.2,0,0,1,0,12.8V3.2A3.2,3.2,0,0,1,3.2,0Zm0,1.067H3.2A2.133,2.133,0,0,0,1.067,3.2h0v9.6A2.133,2.133,0,0,0,3.2,14.933h9.6A2.133,2.133,0,0,0,14.933,12.8h0V5.333A2.133,2.133,0,0,0,12.8,3.2H6.4a.533.533,0,0,1,0-1.067H7.733l-.32-.427A1.6,1.6,0,0,0,6.241,1.07ZM4.8,10.133a.533.533,0,0,1,.533.533v1.067a.533.533,0,0,1-.533.533H3.733a.533.533,0,0,1-.533-.533V10.667a.533.533,0,0,1,.533-.533Zm5.333.533a.533.533,0,0,1,0,1.067H7.467a.533.533,0,1,1,0-1.067ZM4.8,5.867a.533.533,0,0,1,.533.533V7.467A.533.533,0,0,1,4.8,8H3.733A.533.533,0,0,1,3.2,7.467V6.4a.533.533,0,0,1,.533-.533Zm7.467.533a.533.533,0,1,1,0,1.067h-4.8a.533.533,0,1,1,0-1.067Z" transform="translate(4821 2880)"/>
  </g>
</svg>
