<svg xmlns="http://www.w3.org/2000/svg" xmlns:xlink="http://www.w3.org/1999/xlink" width="20" height="20" viewBox="0 0 20 20">
  <defs>
    <clipPath id="clip-Import">
      <rect width="20" height="20"/>
    </clipPath>
  </defs>
  <g id="Import" clip-path="url(#clip-Import)">
    <g id="import_2_" data-name="import (2)" transform="translate(-0.2 0.183)">
      <path id="Path_2329" data-name="Path 2329" d="M15.867,16.464H12.63v1.942h3.237c.963,0,1.71.5,1.71.925v8.612c0,.428-.747.925-1.71.925H3.63c-.963,0-1.71-.5-1.71-.925V19.332c0-.428.747-.925,1.71-.925H6.867V16.465H3.63C1.595,16.465,0,17.724,0,19.332v8.611c0,1.608,1.595,2.867,3.63,2.867H15.868c2.035,0,3.63-1.259,3.63-2.867V19.332C19.5,17.723,17.9,16.464,15.867,16.464Z" transform="translate(0.5 -11.269)" fill="#214578" stroke="#214578" stroke-width="0.5"/>
      <path id="Path_2330" data-name="Path 2330" d="M25.082,9.09a.929.929,0,0,0-.659.273L23.256,10.53V1.049a.932.932,0,1,0-1.864,0v9.544l-1.23-1.229a.932.932,0,0,0-1.318,1.317l2.782,2.782a.928.928,0,0,0,.659.272H22.3a.927.927,0,0,0,.659-.272l2.782-2.782a.932.932,0,0,0-.659-1.59Z" transform="translate(-12.074 0)" fill="#214578" stroke="#214578" stroke-width="0.5"/>
    </g>
  </g>
</svg>
