<svg xmlns="http://www.w3.org/2000/svg" width="12.097" height="12.052" viewBox="0 0 12.097 12.052"><defs><style>.a{fill:#fff;stroke:#fff;stroke-width:0.5px;}</style></defs><g transform="translate(0.25 0.25)"><path class="a" d="M9.437,16.464H7.512v1.143H9.437c.573,0,1.017.292,1.017.544v5.066c0,.252-.444.544-1.017.544H2.159c-.573,0-1.017-.293-1.017-.544V18.151c0-.252.444-.544,1.017-.544H4.084V16.464H2.159A1.946,1.946,0,0,0,0,18.151v5.066A1.946,1.946,0,0,0,2.159,24.9H9.438A1.946,1.946,0,0,0,11.6,23.217V18.151A1.946,1.946,0,0,0,9.437,16.464Z" transform="translate(0 -13.351)"/><path class="a" d="M22.563,5.618a.569.569,0,0,0-.4.168l-.715.715V.688a.571.571,0,0,0-1.143,0v5.85l-.754-.754a.571.571,0,0,0-.808.808L20.445,8.3a.569.569,0,0,0,.4.167h.009a.568.568,0,0,0,.4-.167l1.706-1.706a.571.571,0,0,0-.4-.975Z" transform="translate(-15.036 -0.117)"/></g></svg>