<svg xmlns="http://www.w3.org/2000/svg" width="29.597" height="29.485" viewBox="0 0 29.597 29.485"><defs><style>.a{fill:#214578;stroke:#214578;stroke-width:0.5px;}</style></defs><g transform="translate(0.25 0.133)"><path class="a" d="M23.678,16.464H18.848v2.867h4.831c1.437,0,2.552.733,2.552,1.365V33.407c0,.631-1.115,1.365-2.552,1.365H5.418c-1.437,0-2.551-.734-2.551-1.365V20.7c0-.632,1.115-1.365,2.551-1.365h4.83V16.465H5.418C2.38,16.465,0,18.324,0,20.7V33.408c0,2.374,2.38,4.231,5.418,4.231H23.679c3.037,0,5.418-1.859,5.418-4.231V20.7C29.1,18.323,26.717,16.464,23.678,16.464Z" transform="translate(0 -8.537)"/><path class="a" d="M28.584,13.918a1.429,1.429,0,0,0-1.013.42l-1.794,1.794V1.55a1.433,1.433,0,1,0-2.867,0V16.229l-1.891-1.891a1.433,1.433,0,1,0-2.027,2.026l4.279,4.279a1.428,1.428,0,0,0,1.013.419h.021a1.426,1.426,0,0,0,1.013-.419L29.6,16.364a1.433,1.433,0,0,0-1.013-2.446Z" transform="translate(-9.699 0)"/></g></svg>