<svg xmlns="http://www.w3.org/2000/svg" width="20" height="20" viewBox="0 0 20 20"><defs><style>.a{fill:#0077c0;}</style></defs><g transform="translate(0)"><path class="a" d="M19.7,8.71l-1.159-.223A2.014,2.014,0,0,1,17.3,5.318l.727-.992a.37.37,0,0,0-.037-.481L16.416,2.274a.37.37,0,0,0-.47-.045l-.977.661a2.014,2.014,0,0,1-3.12-1.361L11.662.314A.37.37,0,0,0,11.3,0H9.074A.37.37,0,0,0,8.71.3L8.423,1.8A2.015,2.015,0,0,1,5.315,3.084L4.053,2.23a.371.371,0,0,0-.47.045L2.012,3.846a.371.371,0,0,0-.037.481l.727.992A2.014,2.014,0,0,1,1.459,8.488L.3,8.711a.37.37,0,0,0-.3.363V11.3a.37.37,0,0,0,.314.366l1.216.187A2.014,2.014,0,0,1,2.891,14.97l-.661.977a.37.37,0,0,0,.045.47l1.571,1.571a.37.37,0,0,0,.481.037l.992-.727a2.014,2.014,0,0,1,3.169,1.244L8.71,19.7a.37.37,0,0,0,.364.3H11.3a.37.37,0,0,0,.366-.314l.131-.855a2.014,2.014,0,0,1,3.182-1.318l.7.511a.37.37,0,0,0,.481-.037l1.571-1.571a.37.37,0,0,0,.045-.47l-.661-.977a2.014,2.014,0,0,1,1.361-3.121l1.216-.187A.37.37,0,0,0,20,11.3V9.074A.37.37,0,0,0,19.7,8.71Zm-.44,2.268-.9.139A2.755,2.755,0,0,0,16.5,15.386l.49.724-1.13,1.13-.441-.324a2.755,2.755,0,0,0-4.352,1.8l-.083.541H9.38L9.215,18.4A2.755,2.755,0,0,0,4.88,16.7l-.736.54-1.13-1.13.49-.724a2.755,2.755,0,0,0-1.862-4.268l-.9-.139V9.38L1.6,9.216A2.755,2.755,0,0,0,3.3,4.881l-.54-.736,1.13-1.13L4.9,3.7A2.755,2.755,0,0,0,9.15,1.936l.23-1.2h1.6l.139.9A2.755,2.755,0,0,0,15.386,3.5l.724-.49,1.13,1.13-.54.736a2.755,2.755,0,0,0,1.7,4.335l.857.164Z"/><path class="a" d="M20.889,17a3.889,3.889,0,1,0,3.889,3.889A3.893,3.893,0,0,0,20.889,17Zm0,7.037a3.148,3.148,0,1,1,3.148-3.148A3.152,3.152,0,0,1,20.889,24.037Z" transform="translate(-10.704 -10.704)"/><path class="a" d="M24.037,22a2.037,2.037,0,1,0,2.037,2.037A2.039,2.039,0,0,0,24.037,22Zm0,3.333a1.3,1.3,0,1,1,1.3-1.3A1.3,1.3,0,0,1,24.037,25.333Z" transform="translate(-13.852 -13.852)"/></g></svg>