<svg xmlns="http://www.w3.org/2000/svg" width="18.063" height="18.063" viewBox="0 0 18.063 18.063"><defs><style>.a{fill:#214578;}</style></defs><path class="a" d="M17.791,7.867l-1.046-.2A1.819,1.819,0,0,1,15.621,4.8l.657-.9a.334.334,0,0,0-.033-.434L14.826,2.054a.334.334,0,0,0-.424-.04l-.882.6A1.819,1.819,0,0,1,10.7,1.381l-.169-1.1A.334.334,0,0,0,10.2,0H8.2a.334.334,0,0,0-.328.272l-.26,1.351A1.82,1.82,0,0,1,4.8,2.786L3.661,2.014a.335.335,0,0,0-.424.04L1.817,3.473a.335.335,0,0,0-.033.435l.657.9A1.819,1.819,0,0,1,1.317,7.666l-1.046.2A.334.334,0,0,0,0,8.2V10.2a.334.334,0,0,0,.284.33l1.1.169A1.819,1.819,0,0,1,2.611,13.52l-.6.882a.335.335,0,0,0,.04.424l1.419,1.419a.334.334,0,0,0,.434.033l.9-.657a1.819,1.819,0,0,1,2.862,1.123l.2,1.046a.334.334,0,0,0,.328.271H10.2a.334.334,0,0,0,.33-.284l.119-.772a1.819,1.819,0,0,1,2.874-1.19l.63.462a.334.334,0,0,0,.434-.033l1.419-1.419a.334.334,0,0,0,.04-.424l-.6-.882a1.819,1.819,0,0,1,1.23-2.818l1.1-.169a.334.334,0,0,0,.284-.33V8.2A.334.334,0,0,0,17.791,7.867Zm-.4,2.048-.814.125A2.488,2.488,0,0,0,14.9,13.9l.443.654L14.319,15.57l-.4-.292A2.488,2.488,0,0,0,9.99,16.905l-.075.488H8.471l-.149-.775a2.488,2.488,0,0,0-3.915-1.537l-.665.487L2.722,14.548l.443-.654A2.488,2.488,0,0,0,1.483,10.04L.669,9.915V8.472l.775-.149A2.488,2.488,0,0,0,2.981,4.408l-.487-.665L3.514,2.722l.911.617A2.488,2.488,0,0,0,8.264,1.749L8.471.669H9.915l.125.814A2.488,2.488,0,0,0,13.9,3.165l.654-.443L15.57,3.744l-.487.664a2.488,2.488,0,0,0,1.537,3.915l.774.149Z"/><path class="a" d="M20.512,17a3.512,3.512,0,1,0,3.512,3.512A3.516,3.516,0,0,0,20.512,17Zm0,6.355a2.843,2.843,0,1,1,2.843-2.843A2.846,2.846,0,0,1,20.512,23.355Z" transform="translate(-11.314 -11.314)"/><path class="a" d="M23.84,22a1.84,1.84,0,1,0,1.84,1.84A1.842,1.842,0,0,0,23.84,22Zm0,3.01A1.171,1.171,0,1,1,25.01,23.84,1.172,1.172,0,0,1,23.84,25.01Z" transform="translate(-14.641 -14.641)"/></svg>