<svg xmlns="http://www.w3.org/2000/svg" width="59.218" height="59.366" viewBox="0 0 59.218 59.366"><defs><style>.a{fill:#0077c0;}</style></defs><g transform="translate(-9.656 -1)"><path class="a" d="M37.158,7.9A29.644,29.644,0,0,1,57.7,15.848V13.526a1.477,1.477,0,0,1,2.954,0l.07,5.908a1.442,1.442,0,0,1-1.477,1.477l-5.908.07h0a1.477,1.477,0,1,1,0-2.954h2.251a26.312,26.312,0,0,0-18.358-7.034,25.829,25.829,0,0,0-18.78,7.878,26.422,26.422,0,0,0-5.979,27.643,1.49,1.49,0,0,1-.914,1.9,1.2,1.2,0,0,1-.492.07A1.435,1.435,0,0,1,9.656,47.5,28.983,28.983,0,0,1,8.53,31.462a29.444,29.444,0,0,1,7.807-14.63A29.129,29.129,0,0,1,37.158,7.9Zm.633,56.27a26.312,26.312,0,0,1-18.358-7.034h2.251a1.477,1.477,0,1,0,0-2.954h0l-5.908.07A1.486,1.486,0,0,0,14.3,55.729l.07,5.908a1.486,1.486,0,0,0,1.477,1.477h0a1.486,1.486,0,0,0,1.477-1.477V59.316a29.306,29.306,0,0,0,20.187,7.948h.352a29.008,29.008,0,0,0,20.82-8.933,29.61,29.61,0,0,0,6.682-30.737,1.49,1.49,0,1,0-2.813.985A26.58,26.58,0,0,1,37.791,64.169Zm7.385-33.832v3.376h2.11a1.486,1.486,0,0,1,1.477,1.477V47.851a1.486,1.486,0,0,1-1.477,1.477H27.733a1.486,1.486,0,0,1-1.477-1.477V35.19a1.486,1.486,0,0,1,1.477-1.477h2.11V30.337A7.76,7.76,0,0,1,37.58,22.6,7.64,7.64,0,0,1,45.176,30.337ZM32.8,33.713h9.425V30.337a4.713,4.713,0,0,0-9.425,0v3.376Zm13.012,3.025H29.21v9.636h16.6Z" transform="translate(1.764 -6.898)"/></g></svg>