<svg xmlns="http://www.w3.org/2000/svg" width="34" height="19.217" viewBox="0 0 34 19.217"><defs><style>.a{fill:#fff;}.b{fill:#c9dd6b;}.c{fill:none;stroke:#fff;stroke-miterlimit:10;stroke-width:2px;}</style></defs><g transform="translate(-1 -6)"><g transform="translate(9.87 6)"><path class="a" d="M11.435,10.435A4.356,4.356,0,0,1,15.87,6,4.356,4.356,0,0,1,20.3,10.435,4.356,4.356,0,0,1,15.87,14.87,4.356,4.356,0,0,1,11.435,10.435Zm4.435,7.391C9.07,17.826,7,22.7,7,22.7v2.513H24.739V22.7S22.67,17.826,15.87,17.826Z" transform="translate(-7 -6)"/></g><g transform="translate(24.209 6)"><g transform="translate(0.443)"><circle class="b" cx="3.696" cy="3.696" r="3.696"/></g><g transform="translate(0 10.348)"><path class="b" d="M20.839,13A6.881,6.881,0,0,0,16.7,14.183a9.122,9.122,0,0,1,4.73,4.73v.148h6.061V17.139A6.878,6.878,0,0,0,20.839,13Z" transform="translate(-16.7 -13)"/></g></g><line class="c" y2="11.826" transform="translate(6.913 8.957)"/><line class="c" x1="11.826" transform="translate(1 14.87)"/></g></svg>