<svg xmlns="http://www.w3.org/2000/svg" width="28.207" height="26.112" viewBox="0 0 28.207 26.112"><defs><style>.a{fill:#fff;}.b{fill:#c9dd6b;}</style></defs><g transform="translate(0 -13.385)"><g transform="translate(0 13.385)"><path class="a" d="M12.562,28.081a7.087,7.087,0,0,0,1.516-1.274l1.594.921,1.452-2.515-1.591-.919a7,7,0,0,0,.344-1.952l1.81-.319-.5-2.859-1.81.319a7.039,7.039,0,0,0-.993-1.714l1.183-1.41-2.224-1.866L12.157,15.9a6.989,6.989,0,0,0-1.862-.679V13.385h-2.9v1.837A6.99,6.99,0,0,0,5.53,15.9L4.348,14.493,2.124,16.359l1.183,1.41a7.042,7.042,0,0,0-.993,1.714L.5,19.164,0,22.024l1.81.319a7,7,0,0,0,.344,1.952l-1.591.919,1.452,2.514,1.594-.92a7.087,7.087,0,0,0,1.516,1.274L4.5,29.81l2.728.993.629-1.727a7.039,7.039,0,0,0,1.982,0l.628,1.727,2.728-.993ZM8.843,25.817a3.708,3.708,0,1,1,3.708-3.708A3.712,3.712,0,0,1,8.843,25.817Z" transform="translate(0 -13.385)"/><path class="b" d="M209.247,218.911l-1.252.4a5.04,5.04,0,0,0-.873-1.117l.7-1.116-1.761-1.1-.7,1.115a4.994,4.994,0,0,0-1.387-.3l-.181-1.3-2.059.287.181,1.3a5,5,0,0,0-1.253.666l-.977-.882-1.393,1.543.978.883a5.039,5.039,0,0,0-.534,1.314l-1.315-.048-.075,2.077,1.315.048a5.013,5.013,0,0,0,.437,1.35l-1.037.809,1.278,1.639,1.039-.81a5.086,5.086,0,0,0,1.2.753l-.276,1.288,2.033.434.275-1.286a5.054,5.054,0,0,0,1.405-.2l.616,1.162,1.836-.974-.617-1.163a5.082,5.082,0,0,0,.949-1.053l1.221.5.781-1.926-1.219-.494a5.034,5.034,0,0,0,.051-1.418l1.252-.405Zm-5.255,5.54a2.654,2.654,0,1,1,2.263-3A2.657,2.657,0,0,1,203.992,224.452Z" transform="translate(-184.205 -202.035)"/><path class="a" d="M280.2,75.107l.049-1.64-1.038-.031a3.979,3.979,0,0,0-.352-1.064l.815-.644-1.017-1.287-.815.644a3.976,3.976,0,0,0-.953-.587l.211-1.018-1.606-.333-.211,1.018a3.94,3.94,0,0,0-1.108.161l-.492-.914-1.445.778.492.914a3.954,3.954,0,0,0-.744.837l-.965-.384-.607,1.525.966.385a3.975,3.975,0,0,0-.034,1.119l-.986.326.515,1.558.986-.326a3.957,3.957,0,0,0,.694.879l-.545.884,1.4.862.547-.885a4.012,4.012,0,0,0,1.1.227l.15,1.029,1.624-.237-.15-1.028a3.983,3.983,0,0,0,.986-.531l.776.691,1.091-1.225-.776-.691a4.018,4.018,0,0,0,.413-1.04Zm-3.91.879a2.1,2.1,0,1,1,.851-2.838A2.1,2.1,0,0,1,276.289,75.986Z" transform="translate(-252.041 -65.434)"/></g></g></svg>