<svg xmlns="http://www.w3.org/2000/svg" width="13.309" height="15" viewBox="0 0 13.309 15"><defs><style>.a{fill:#55beff;}</style></defs><path class="a" d="M27.4,74.866a.58.58,0,0,0,.182-.817.617.617,0,0,0-.841-.177,6.387,6.387,0,0,0-3.079,5.455,6.657,6.657,0,0,0,13.309,0A6.423,6.423,0,0,0,34.06,73.98a.605.605,0,0,0-.841.158.569.569,0,0,0,.162.817,5.245,5.245,0,0,1,2.38,4.372,5.441,5.441,0,0,1-10.878,0A5.187,5.187,0,0,1,27.4,74.866Z" transform="translate(-23.658 -70.795)"/><path class="a" d="M194.182,10.076V.687a.687.687,0,0,0-1.374,0v9.389a.687.687,0,0,0,1.374,0Z" transform="translate(-186.841)"/></svg>