<svg xmlns="http://www.w3.org/2000/svg" width="18" height="16.435" viewBox="0 0 18 16.435"><defs><style>.a{fill:#ffffff;}</style></defs><path class="a" d="M2.348,3.348V1H3.913V3.348H6.261V4.913H3.913V7.261H2.348V4.913H0V3.348ZM4.7,8.043V5.7H7.043V3.348h5.478l1.432,1.565h2.481A1.57,1.57,0,0,1,18,6.478V15.87a1.57,1.57,0,0,1-1.565,1.565H3.913A1.57,1.57,0,0,1,2.348,15.87V8.043Zm5.478,7.043a3.913,3.913,0,1,0-3.913-3.913A3.914,3.914,0,0,0,10.174,15.087Zm-2.5-3.913a2.5,2.5,0,1,0,2.5-2.5A2.5,2.5,0,0,0,7.67,11.174Z" transform="translate(0 -1)"/></svg>
