<svg id="menu_2_" data-name="menu (2)" xmlns="http://www.w3.org/2000/svg" width="20" height="20" viewBox="0 0 20 20">
  <g id="Group_2707" data-name="Group 2707" transform="translate(0 0)">
    <g id="Group_2706" data-name="Group 2706">
      <path id="Path_2139" data-name="Path 2139" d="M7.193,0H2.409A2.412,2.412,0,0,0,0,2.409V7.193A2.412,2.412,0,0,0,2.409,9.6H7.193A2.412,2.412,0,0,0,9.6,7.193V2.409A2.412,2.412,0,0,0,7.193,0Zm.782,7.193a.783.783,0,0,1-.782.782H2.409a.783.783,0,0,1-.782-.782V2.409a.783.783,0,0,1,.782-.782H7.193a.783.783,0,0,1,.782.782Z" fill="#dfe8f4"/>
    </g>
  </g>
  <g id="Group_2709" data-name="Group 2709" transform="translate(10.396 0)">
    <g id="Group_2708" data-name="Group 2708">
      <path id="Path_2140" data-name="Path 2140" d="M283.16,0h-4.718A2.442,2.442,0,0,0,276,2.442V7.16A2.442,2.442,0,0,0,278.442,9.6h4.719A2.442,2.442,0,0,0,285.6,7.16V2.442A2.442,2.442,0,0,0,283.16,0Zm.813,7.16a.815.815,0,0,1-.813.813h-4.718a.815.815,0,0,1-.813-.813V2.442a.815.815,0,0,1,.813-.813h4.719a.815.815,0,0,1,.813.813Z" transform="translate(-276 0)" fill="#dfe8f4"/>
    </g>
  </g>
  <g id="Group_2711" data-name="Group 2711" transform="translate(0 10.396)">
    <g id="Group_2710" data-name="Group 2710">
      <path id="Path_2141" data-name="Path 2141" d="M7.193,276H2.409A2.412,2.412,0,0,0,0,278.409v4.784A2.412,2.412,0,0,0,2.409,285.6H7.193A2.412,2.412,0,0,0,9.6,283.193v-4.784A2.412,2.412,0,0,0,7.193,276Zm.782,7.193a.783.783,0,0,1-.782.782H2.409a.783.783,0,0,1-.782-.782v-4.784a.783.783,0,0,1,.782-.782H7.193a.783.783,0,0,1,.782.782Z" transform="translate(0 -276)" fill="#dfe8f4"/>
    </g>
  </g>
  <g id="Group_2713" data-name="Group 2713" transform="translate(10.396 10.396)">
    <g id="Group_2712" data-name="Group 2712">
      <path id="Path_2142" data-name="Path 2142" d="M283.16,276h-4.718A2.442,2.442,0,0,0,276,278.442v4.719a2.442,2.442,0,0,0,2.442,2.442h4.719a2.442,2.442,0,0,0,2.442-2.442v-4.719A2.442,2.442,0,0,0,283.16,276Zm.813,7.16a.815.815,0,0,1-.813.813h-4.718a.815.815,0,0,1-.813-.813v-4.718a.815.815,0,0,1,.813-.813h4.719a.815.815,0,0,1,.813.813Z" transform="translate(-276 -276)" fill="#dfe8f4"/>
    </g>
  </g>
</svg>
