<svg xmlns="http://www.w3.org/2000/svg" xmlns:xlink="http://www.w3.org/1999/xlink" width="28" height="34" viewBox="0 0 28 34">
  <defs>
    <clipPath id="clip-custom_1">
      <rect width="28" height="34"/>
    </clipPath>
  </defs>
  <g id="custom_1" data-name="custom – 1" clip-path="url(#clip-custom_1)">
    <g id="money-bag_1_" data-name="money-bag (1)" transform="translate(0 1.001)">
      <path id="Path_2276" data-name="Path 2276" d="M23.316,12.089l-4.157-2.8h.421a.929.929,0,0,0,0-1.859H18.289a10.584,10.584,0,0,0,2.22-6.5V.929A.929.929,0,0,0,19.58,0H8.427A.93.93,0,0,0,7.5.929V.937a10.584,10.584,0,0,0,2.221,6.5H8.427a.929.929,0,1,0,0,1.859h.422l-4.157,2.8A10.609,10.609,0,0,0,9.206,31.414a37.173,37.173,0,0,0,4.8.311,37.173,37.173,0,0,0,4.8-.311,10.612,10.612,0,0,0,4.515-19.325ZM18.6,1.858a8.725,8.725,0,0,1-2.839,5.577h-3.52A8.726,8.726,0,0,1,9.4,1.858ZM18.561,29.57a35.324,35.324,0,0,1-9.115,0A8.753,8.753,0,0,1,5.728,13.631L12.18,9.293h3.647l6.452,4.338A8.753,8.753,0,0,1,18.561,29.57Zm0,0" transform="translate(0)" fill="#697c97"/>
      <path id="Path_2277" data-name="Path 2277" d="M183.784,214.714h1.859a.929.929,0,0,0,0-1.859h-.929v-.929a.929.929,0,0,0-1.859,0v1.089a2.788,2.788,0,0,0,.929,5.417.929.929,0,1,1,0,1.859h-1.859a.929.929,0,1,0,0,1.859h.929v.929a.929.929,0,0,0,1.859,0v-1.089a2.788,2.788,0,0,0-.929-5.417.929.929,0,1,1,0-1.859Zm0,0" transform="translate(-169.781 -197.923)" fill="#697c97"/>
    </g>
  </g>
</svg>
